<svg width="30" height="30" viewBox="0 0 30 30" fill="none" xmlns="http://www.w3.org/2000/svg">
<path d="M30 0H0V30H30V0Z" fill="#FF237F"/>
<path d="M8.41047 23.4766C8.05994 23.4766 7.73786 23.4156 7.44423 23.2934C7.15061 23.1712 6.89568 22.9983 6.67944 22.7747C6.4632 22.5511 6.2959 22.2859 6.17754 21.9793C6.05918 21.6727 6 21.3373 6 20.9731C6 20.618 6.06146 20.2895 6.18437 19.9875C6.30728 19.6855 6.48027 19.4227 6.70334 19.1991C6.9264 18.9755 7.18816 18.8015 7.48862 18.677C7.78907 18.5525 8.11457 18.4902 8.4651 18.4902C8.69272 18.4902 8.91692 18.5214 9.13771 18.5836C9.3585 18.6458 9.56108 18.7369 9.74545 18.8568C9.92982 18.9767 10.088 19.1196 10.22 19.2856L9.57815 20.0048C9.47344 19.8942 9.36191 19.7985 9.24355 19.7178C9.12519 19.6371 9.00114 19.5749 8.8714 19.5311C8.74165 19.4873 8.60395 19.4654 8.45827 19.4654C8.26252 19.4654 8.07929 19.5023 7.90857 19.576C7.73786 19.6498 7.58877 19.7524 7.4613 19.8838C7.33384 20.0152 7.23255 20.1743 7.15744 20.361C7.08232 20.5477 7.04476 20.7541 7.04476 20.98C7.04476 21.2105 7.08118 21.4191 7.15402 21.6059C7.22686 21.7926 7.32929 21.9517 7.4613 22.0831C7.59332 22.2145 7.75152 22.3159 7.93589 22.3874C8.12026 22.4588 8.32398 22.4946 8.54704 22.4946C8.69272 22.4946 8.83384 22.4738 8.97041 22.4323C9.10698 22.3908 9.23331 22.3332 9.34939 22.2594C9.46548 22.1857 9.56904 22.1004 9.66009 22.0035L10.1654 22.8127C10.0516 22.9372 9.9025 23.0502 9.71813 23.1516C9.53376 23.253 9.32777 23.3326 9.10015 23.3902C8.87253 23.4478 8.64264 23.4766 8.41047 23.4766Z" fill="white"/>
<path d="M11.019 23.4071V18.5659H12.0433V22.4734H14.208V23.4071H11.019Z" fill="white"/>
<path d="M16.9871 23.4487C16.6001 23.4487 16.2553 23.3668 15.9526 23.2032C15.6498 23.0395 15.412 22.8136 15.239 22.5254C15.066 22.2372 14.9795 21.911 14.9795 21.5468V18.5591H16.0106V21.4845C16.0106 21.6782 16.0538 21.8522 16.1403 22.0067C16.2268 22.1611 16.3441 22.2845 16.492 22.3767C16.64 22.4689 16.805 22.515 16.9871 22.515C17.1737 22.515 17.3433 22.4689 17.4958 22.3767C17.6483 22.2845 17.7689 22.1611 17.8577 22.0067C17.9465 21.8522 17.9909 21.6782 17.9909 21.4845V18.5591H18.9878V21.5468C18.9878 21.911 18.9025 22.2372 18.7318 22.5254C18.5611 22.8136 18.3232 23.0395 18.0182 23.2032C17.7132 23.3668 17.3695 23.4487 16.9871 23.4487Z" fill="white"/>
<path d="M20.1895 23.4071V18.5659H22.2653C22.584 18.5659 22.8537 18.6132 23.0745 18.7077C23.2953 18.8022 23.4626 18.9394 23.5764 19.1192C23.6902 19.299 23.7471 19.5134 23.7471 19.7624C23.7471 20.039 23.6788 20.2696 23.5423 20.454C23.4057 20.6384 23.2099 20.7652 22.955 20.8344L22.9482 20.696C23.1621 20.7468 23.3476 20.8297 23.5047 20.945C23.6618 21.0603 23.7835 21.2032 23.87 21.3738C23.9565 21.5444 23.9998 21.738 23.9998 21.9547C23.9998 22.1945 23.9611 22.4054 23.8837 22.5876C23.8063 22.7697 23.6925 22.9207 23.5423 23.0406C23.392 23.1604 23.2156 23.2515 23.0131 23.3137C22.8105 23.376 22.584 23.4071 22.3336 23.4071H20.1895ZM21.1728 22.508H22.2926C22.4383 22.508 22.5624 22.4861 22.6648 22.4423C22.7672 22.3985 22.8458 22.3305 22.9004 22.2383C22.955 22.1461 22.9823 22.0377 22.9823 21.9132C22.9823 21.7934 22.9527 21.6919 22.8935 21.6089C22.8344 21.526 22.7513 21.4626 22.6443 21.4188C22.5373 21.375 22.4087 21.3531 22.2585 21.3531H21.1728V22.508ZM21.1728 20.5301H22.1424C22.2653 20.5301 22.3723 20.507 22.4634 20.4609C22.5544 20.4148 22.6238 20.3525 22.6716 20.2742C22.7194 20.1958 22.7433 20.1036 22.7433 19.9975C22.7433 19.8269 22.6887 19.6955 22.5794 19.6033C22.4702 19.5111 22.304 19.465 22.081 19.465H21.1728V20.5301Z" fill="white"/>
<path fill-rule="evenodd" clip-rule="evenodd" d="M13.8294 13.6201C13.8294 13.3517 13.8441 13.0735 13.9766 12.841L13.9907 12.8164C14.1659 12.509 14.4983 12.3393 14.8151 12.1874C15.2916 11.9589 15.6212 11.4674 15.6212 10.898C15.6212 10.3459 15.3114 9.86716 14.8583 9.63022C14.5339 9.46059 14.1885 9.28198 14.0059 8.96173L13.9699 8.89851C13.8468 8.68261 13.8294 8.42518 13.8294 8.17588C13.8294 7.38839 13.1991 6.75 12.4215 6.75C11.644 6.75 11.0137 7.38839 11.0137 8.17588C11.0137 8.71008 11.3037 9.17566 11.733 9.41991C12.0647 9.60862 12.4238 9.79677 12.614 10.1305L12.6725 10.233C12.7859 10.4319 12.8055 10.6683 12.8055 10.898C12.8055 11.1075 12.7843 11.3222 12.6809 11.5036L12.5994 11.6465C12.401 11.9945 12.0273 12.1929 11.6887 12.4024C11.2839 12.6529 11.0137 13.1045 11.0137 13.6201C11.0137 14.4076 11.644 15.046 12.4215 15.046C13.1991 15.046 13.8294 14.4076 13.8294 13.6201Z" fill="white"/>
<path d="M17.0236 9.60174C16.246 9.60174 15.6157 8.96337 15.6157 8.17588C15.6157 7.38839 16.246 6.75 17.0236 6.75C17.8011 6.75 18.4314 7.38839 18.4314 8.17588C18.4314 8.96337 17.8011 9.60174 17.0236 9.60174Z" fill="white"/>
<path d="M17.0289 15.0461C16.2514 15.0461 15.6211 14.4077 15.6211 13.6202C15.6211 12.8327 16.2514 12.1943 17.0289 12.1943C17.8065 12.1943 18.4368 12.8327 18.4368 13.6202C18.4368 14.4077 17.8065 15.0461 17.0289 15.0461Z" fill="white"/>
<path d="M20.3951 12.1057C19.6176 12.1057 18.9873 11.4673 18.9873 10.6798C18.9873 9.8923 19.6176 9.25391 20.3951 9.25391C21.1727 9.25391 21.803 9.8923 21.803 10.6798C21.803 11.4673 21.1727 12.1057 20.3951 12.1057Z" fill="white"/>
<path d="M9.60609 12.1941C8.82856 12.1941 8.19824 11.5557 8.19824 10.7682C8.19824 9.98068 8.82856 9.34229 9.60609 9.34229C10.3836 9.34229 11.0139 9.98068 11.0139 10.7682C11.0139 11.5557 10.3836 12.1941 9.60609 12.1941Z" fill="white"/>
</svg>
